PathFileType	4	(X/Y/Z)	Trial12_Gait_LowerBody_markers_cropped.trc
DataRate	CameraRate	NumFrames	NumMarkers	Units	OrigDataRate	OrigDataStartFrame	OrigNumFrames
200	200	6	27	m	200	25	101
Frame#	Time	R_ASIS			L_ASIS			Sacral			L_Thigh_Superior			L_Thigh_Posterior			L_Thigh_Inferior			L_Thigh_Lateral			L_Shank_Posterior			L_Shank_Superior			L_Shank_Lateral			L_Shank_Inferior			L_Midfoot_Superior			L_Heel			L_Midfoot_Lateral			L_Toe			R_Thigh_Posterior			R_Thigh_Superior			R_Thigh_Lateral			R_Thigh_Inferior			R_Shank_Posterior			R_Shank_Superior			R_Shank_Lateral			R_Shank_Inferior			R_Midfoot_Superior			R_Heel			R_Midfoot_Lateral			R_Toe
		X1	Y1	Z1	X2	Y2	Z2	X3	Y3	Z3	X4	Y4	Z4	X5	Y5	Z5	X6	Y6	Z6	X7	Y7	Z7	X8	Y8	Z8	X9	Y9	Z9	X10	Y10	Z10	X11	Y11	Z11	X12	Y12	Z12	X13	Y13	Z13	X14	Y14	Z14	X15	Y15	Z15	X16	Y16	Z16	X17	Y17	Z17	X18	Y18	Z18	X19	Y19	Z19	X20	Y20	Z20	X21	Y21	Z21	X22	Y22	Z22	X23	Y23	Z23	X24	Y24	Z24	X25	Y25	Z25	X26	Y26	Z26	X27	Y27	Z27

26	   0.125	    0.81573330761403	    0.97351047567171	    0.62614334505204	    0.81462437700375	    0.96558718893082	    0.37667911439203	    0.62108644755399	    1.02749764085736	    0.51274697145472	    0.84217182809446	    0.74330223217191	    0.31088762145742	    0.77334974946433	    0.71229729040833	    0.31341178918539	    0.87740717911650	    0.65588494668157	    0.32317164684702	    0.80267280363562	    0.62830011764786	    0.32517432240776	    0.76074903764498	    0.44948094359444	    0.33335881939258	    0.79607760892453	    0.38318852939508	    0.34132639330367	    0.70515628751389	    0.40479164803385	    0.33074035632965	    0.74556007193962	    0.35311765380614	    0.33926233224629	    0.60850114401972	    0.16559815981520	    0.40933930267205	    0.47147180563988	    0.27792702617900	    0.44084854777340	    0.51261341705572	    0.18847843023444	    0.36993338612972	    0.64085828314273	    0.03998467722151	    0.40226044059872	    0.75567488493837	    0.76083571188956	    0.69014890678542	    0.82985162220187	    0.76982620930920	    0.67936821048778	    0.77213125535055	    0.66257825821730	    0.68393776226292	    0.84184359737687	    0.67482923724028	    0.67709237387800	    0.75114635964666	    0.34865853250721	    0.66593341638078	    0.82485763116925	    0.33410637328076	    0.65024294218765	    0.74372208617824	    0.27913559613767	    0.65108395231338	    0.81456081762984	    0.27622897001903	    0.63693210815737	    0.83001372808474	    0.08806950859701	    0.56697341488376	    0.65839261029103	    0.04746493940984	    0.54049450182518	    0.75563531030934	    0.01505804320858	    0.61060840643819	    0.95462661240104	    0.03857044461476	    0.57404246833050
27	   0.130	    0.81530866569922	    0.97474099716709	    0.62680722391933	    0.81369118066910	    0.96749980677265	    0.37750691970037	    0.62061366286865	    1.02931027502088	    0.51354983248060	    0.84523179437990	    0.74819901827504	    0.31120395439249	    0.77732743950159	    0.71573466831696	    0.31354047823534	    0.88247877716218	    0.66158948514651	    0.32322377368504	    0.80838223159083	    0.63229203020184	    0.32466836436295	    0.77065984032996	    0.45032099458601	    0.33309318607690	    0.80814479256480	    0.38532612501192	    0.34198506616486	    0.71660688410734	    0.40377923875402	    0.33069008396813	    0.75866869838038	    0.35356480788830	    0.33999723827332	    0.62965766975090	    0.16427548237411	    0.40979871300916	    0.48580374156902	    0.26750109131894	    0.44190252650059	    0.53248096776327	    0.18131289744037	    0.37047421035231	    0.66982688650508	    0.04102517086781	    0.40209264349807	    0.75250521545692	    0.76195967192758	    0.69038334813177	    0.82683873501916	    0.76971782084274	    0.67962231538701	    0.76727075494417	    0.66337626937052	    0.68390436495999	    0.83721127894766	    0.67448901331042	    0.67696192606232	    0.74012803876142	    0.34925936395195	    0.66567285618684	    0.81378798156908	    0.33397841055430	    0.65044723049054	    0.73226255778499	    0.27976853969992	    0.65079162430094	    0.80306900985379	    0.27618264943985	    0.63708561631291	    0.81765399782161	    0.08801251567767	    0.56672047271670	    0.64595854699623	    0.04793623204494	    0.54006982324110	    0.74299399984887	    0.01535014930255	    0.61039630258465	    0.94217034694649	    0.03786600500595	    0.57398579633241
28	   0.135	    0.81478440105642	    0.97583468288656	    0.62737406990374	    0.81283070945302	    0.96938988994302	    0.37818616848736	    0.62004717765836	    1.03098341865385	    0.51425456312487	    0.84792418847240	    0.75293680504990	    0.31144216813894	    0.78082625544856	    0.71919099455859	    0.31348468971656	    0.88701379438935	    0.66716197128152	    0.32323200740770	    0.81355761610243	    0.63622932088491	    0.32392873755572	    0.77989255803294	    0.45077487133070	    0.33293710554580	    0.81980356444057	    0.38729741110599	    0.34243154406766	    0.72765005577861	    0.40221171714657	    0.33076610593980	    0.77155595402309	    0.35369569239544	    0.34057054491803	    0.65150206368295	    0.16208583026526	    0.41006148843296	    0.50114211737410	    0.25532942850369	    0.44281684061269	    0.55343473485490	    0.17304475738363	    0.37074366967919	    0.69986699911396	    0.04199147221117	    0.40134736221221	    0.74919766761605	    0.76304060323559	    0.69058770707244	    0.82364593921145	    0.76959510663148	    0.67976757237945	    0.76222250782909	    0.66420066637758	    0.68387457485173	    0.83243876719755	    0.67418561316999	    0.67664267775447	    0.72889530492545	    0.34998338618979	    0.66535154412582	    0.80251894258318	    0.33400696665393	    0.65069059249039	    0.72062674843970	    0.28052627663531	    0.65043345535189	    0.79142312470197	    0.27629376518843	    0.63727560719839	    0.80534386581364	    0.08797831708671	    0.56641672063327	    0.63356712458109	    0.04851097606089	    0.53954474905075	    0.73038010300030	    0.01570871032729	    0.61013927220027	    0.92972669831207	    0.03714968200115	    0.57389157368781
29	   0.140	    0.81417465531590	    0.97677859180554	    0.62785653773633	    0.81199221458574	    0.97117784131054	    0.37873109491895	    0.61937997181636	    1.03249814297719	    0.51484893760492	    0.85021211193208	    0.75745683879311	    0.31162008471715	    0.78371139585357	    0.72256832657476	    0.31313873556034	    0.89100390639585	    0.67251885581919	    0.32323236597805	    0.81819476131926	    0.64004659173656	    0.32301924593081	    0.78848451698110	    0.45089718597250	    0.33294056905015	    0.83107824298488	    0.38913652995729	    0.34262051161727	    0.73835076080411	    0.40016634053710	    0.33093750181653	    0.78426055117046	    0.35359063850075	    0.34086879211768	    0.67395893696397	    0.15909354623767	    0.41005126594127	    0.51768585660730	    0.24166717502824	    0.44351575850197	    0.57543099733756	    0.16380891246298	    0.37075519408893	    0.73059638185991	    0.04286482074220	    0.40010199815543	    0.74570481226311	    0.76403779917041	    0.69080622799870	    0.82026392185326	    0.76945161516060	    0.67978919372161	    0.75700424094176	    0.66504592698529	    0.68381932154340	    0.82751426329641	    0.67390151223659	    0.67616916046286	    0.71772639926625	    0.35078570850022	    0.66510982271511	    0.79131340573443	    0.33418592987043	    0.65096187804053	    0.70905309730752	    0.28138181129021	    0.65012552348229	    0.77987703720290	    0.27657120231214	    0.63747606693299	    0.79308379033713	    0.08796882661016	    0.56611580808381	    0.62120173478901	    0.04920620841844	    0.53892843325774	    0.71779965226585	    0.01613381002427	    0.60985396796251	    0.91728797477768	    0.03645071648092	    0.57376187818179
30	   0.145	    0.81351066057084	    0.97757803336303	    0.62830099798253	    0.81114264029467	    0.97280268071033	    0.37916383722837	    0.61861652220016	    1.03384405304964	    0.51531088564923	    0.85213617234370	    0.76172901493719	    0.31175711569650	    0.78603524005385	    0.72572140917728	    0.31253970679896	    0.89446290147306	    0.67756961673909	    0.32325669591039	    0.82230785189891	    0.64367763725973	    0.32200743810836	    0.79649444567366	    0.45064508894289	    0.33306365808430	    0.84199291650574	    0.39081535194642	    0.34256265880790	    0.74878638177209	    0.39763754746645	    0.33110685753799	    0.79682271368618	    0.35325335660998	    0.34084773964359	    0.69700987303587	    0.15539723807609	    0.40971291536862	    0.53556943816641	    0.22677069182304	    0.44394659900997	    0.59843447183475	    0.15376016528607	    0.37051324590400	    0.76170685677457	    0.04361568549558	    0.39847029199969	    0.74200060722183	    0.76494725369368	    0.69110202693484	    0.81668419454066	    0.76929058970216	    0.67967626287225	    0.75165974098440	    0.66588612585970	    0.68371997417437	    0.82239953320243	    0.67362271853604	    0.67561681052327	    0.70674331090114	    0.35166375871185	    0.66498307353953	    0.78027775277615	    0.33449567919270	    0.65126069076889	    0.69763937123232	    0.28233688680166	    0.64993287957227	    0.76850517641698	    0.27699000749803	    0.63769962553693	    0.78087901186257	    0.08800213247069	    0.56588459033383	    0.60884103666328	    0.05009486574072	    0.53830660820596	    0.70524253387514	    0.01662752989622	    0.60955452504929	    0.90484202521488	    0.03579961684074	    0.57360263052680
31	   0.150	    0.81286456078624	    0.97828508416961	    0.62878801349951	    0.81027410607628	    0.97422863236106	    0.37950459845615	    0.61776910707352	    1.03502206158896	    0.51562309494471	    0.85373199862613	    0.76568695157138	    0.31186866766405	    0.78801028307729	    0.72856055489507	    0.31179615551235	    0.89740595252278	    0.68221215667736	    0.32331081907686	    0.82590061912697	    0.64704873864028	    0.32096771991113	    0.80397466971051	    0.44991470823251	    0.33321391792471	    0.85254019248774	    0.39228756616197	    0.34229000737566	    0.75902054803123	    0.39456603064117	    0.33117922835873	    0.80926036474611	    0.35264284823184	    0.34053334706420	    0.72065479567749	    0.15112348705462	    0.40903887870556	    0.55485295599264	    0.21091958730579	    0.44406646500094	    0.62242197148659	    0.14307811545157	    0.37001193494641	    0.79302714708524	    0.04428373114295	    0.39657331956327	    0.73810521765743	    0.76581237499375	    0.69146614503159	    0.81290982648400	    0.76911864602374	    0.67943820099661	    0.74623187768177	    0.66671619297638	    0.68357230352176	    0.81707460659451	    0.67334877141419	    0.67507254072623	    0.69592362840448	    0.35264496005001	    0.66493670692153	    0.76938118619253	    0.33491754720421	    0.65159874750129	    0.68635482114224	    0.28340878326326	    0.64984245927917	    0.75725577233327	    0.27752456313193	    0.63797664229237	    0.76874036595389	    0.08810028241216	    0.56575546092445	    0.59657021595919	    0.05126438811029	    0.53781829551131	    0.69269013770226	    0.01719872791593	    0.60923652663016	    0.89237857524673	    0.03521491487280	    0.57341992778025
